{
	"asset":{
		"generator":"Khronos glTF Blender I/O v3.6.28",
		"version":"2.0"
	},
	"scene":0,
	"scenes":[
		{
			"name":"Scene",
			"nodes":[
				0,
				1,
				2,
				3,
				4,
				5,
				6,
				7,
				8,
				9,
				10,
				11,
				12,
				13,
				14
			]
		}
	],
	"nodes":[
		{
			"mesh":0,
			"name":"Cube",
			"scale":[
				0.8142624497413635,
				1,
				1
			],
			"translation":[
				0.7438894510269165,
				0,
				0
			]
		},
		{
			"camera":0,
			"name":"Camera",
			"rotation":[
				0,
				-1,
				0,
				4.371138828673793e-08
			],
			"translation":[
				0,
				0,
				-10
			]
		},
		{
			"mesh":1,
			"name":"Cylinder",
			"scale":[
				0.7942624688148499,
				1,
				1
			],
			"translation":[
				0.04962700605392456,
				0,
				0
			]
		},
		{
			"mesh":2,
			"name":"Cylinder.001",
			"rotation":[
				0,
				0,
				-0.7071068286895752,
				0.7071068286895752
			],
			"scale":[
				0.7699999213218689,
				2.621066093444824,
				0.7699999213218689
			],
			"translation":[
				0.04958269000053406,
				-0.4984656572341919,
				-4.380296230316162
			]
		},
		{
			"mesh":3,
			"name":"Cylinder.002",
			"rotation":[
				0,
				0,
				-0.7071068286895752,
				0.7071068286895752
			],
			"scale":[
				0.7699999213218689,
				2.621066093444824,
				0.7699999213218689
			],
			"translation":[
				0.04958269000053406,
				-0.5,
				2.200000047683716
			]
		},
		{
			"mesh":4,
			"name":"Cylinder.003",
			"rotation":[
				0,
				0,
				-0.7071068286895752,
				0.7071068286895752
			],
			"scale":[
				0.7699999213218689,
				2.621066093444824,
				0.7699999213218689
			],
			"translation":[
				0.04958269000053406,
				-0.5,
				4.5
			]
		},
		{
			"mesh":5,
			"name":"Cylinder.004",
			"rotation":[
				0,
				0,
				-0.7071068286895752,
				0.7071068286895752
			],
			"scale":[
				0.7699999213218689,
				2.621066093444824,
				0.7699999213218689
			],
			"translation":[
				0.04958269000053406,
				-0.5,
				0
			]
		},
		{
			"mesh":6,
			"name":"Cylinder.005",
			"rotation":[
				0,
				0,
				-0.7071068286895752,
				0.7071068286895752
			],
			"scale":[
				0.7699999213218689,
				2.621066093444824,
				0.7699999213218689
			],
			"translation":[
				0.04958269000053406,
				-0.5,
				-2.200000047683716
			]
		},
		{
			"mesh":7,
			"name":"Cube.001",
			"scale":[
				0.7942624688148499,
				0.9300000071525574,
				1
			],
			"translation":[
				0.7582911252975464,
				0,
				-0.5
			]
		},
		{
			"camera":1,
			"name":"Camera.001",
			"rotation":[
				0,
				-1,
				0,
				4.371138828673793e-08
			],
			"translation":[
				0,
				0,
				-10
			]
		},
		{
			"mesh":8,
			"name":"Cube.002",
			"translation":[
				0,
				2,
				0
			]
		},
		{
			"mesh":9,
			"name":"Cube.003",
			"scale":[
				1.0099999904632568,
				1.0399999618530273,
				0.800000011920929
			],
			"translation":[
				0,
				2,
				-0.6000000238418579
			]
		},
		{
			"mesh":10,
			"name":"Cylinder.006",
			"rotation":[
				0,
				0,
				0.7071068286895752,
				0.7071068286895752
			],
			"scale":[
				0.30000001192092896,
				1.6056419610977173,
				0.30000001192092896
			],
			"translation":[
				0,
				1.379385232925415,
				0.51970374584198
			]
		},
		{
			"mesh":11,
			"name":"Circle",
			"rotation":[
				0.5,
				0.5,
				-0.5,
				0.5
			],
			"scale":[
				0.30000001192092896,
				16.129161834716797,
				0.30000001192092896
			],
			"translation":[
				-1.6148260831832886,
				1.3795357942581177,
				0.5196723937988281
			]
		},
		{
			"mesh":12,
			"name":"Cylinder.007",
			"rotation":[
				0.6780992150306702,
				0,
				0,
				0.7349703907966614
			],
			"scale":[
				0.07751428335905075,
				2.8931350708007812,
				0.07934935390949249
			],
			"translation":[
				0,
				1.7417662143707275,
				2.1690011024475098
			]
		}
	],
	"cameras":[
		{
			"name":"Camera",
			"perspective":{
				"aspectRatio":1.7777777777777777,
				"yfov":0.39959652046304894,
				"zfar":100,
				"znear":0.10000000149011612
			},
			"type":"perspective"
		},
		{
			"name":"Camera.001",
			"perspective":{
				"aspectRatio":1.7777777777777777,
				"yfov":0.39959652046304894,
				"zfar":100,
				"znear":0.10000000149011612
			},
			"type":"perspective"
		}
	],
	"materials":[
		{
			"doubleSided":true,
			"name":"Material",
			"pbrMetallicRoughness":{
				"baseColorFactor":[
					0.018500197678804398,
					0.022173862904310226,
					0.017641957849264145,
					1
				],
				"metallicFactor":0,
				"roughnessFactor":0.5
			}
		},
		{
			"doubleSided":true,
			"name":"Material.001",
			"pbrMetallicRoughness":{
				"baseColorFactor":[
					0,
					0,
					0,
					1
				],
				"metallicFactor":0,
				"roughnessFactor":0.5
			}
		},
		{
			"doubleSided":true,
			"name":"Material.002",
			"pbrMetallicRoughness":{
				"baseColorFactor":[
					0.13563328981399536,
					0.13286826014518738,
					0.03433984890580177,
					1
				],
				"metallicFactor":0,
				"roughnessFactor":0.5
			}
		},
		{
			"doubleSided":true,
			"name":"Material.003",
			"pbrMetallicRoughness":{
				"baseColorFactor":[
					0.018500197678804398,
					0.022173862904310226,
					0.017641957849264145,
					1
				],
				"metallicFactor":0,
				"roughnessFactor":0.5
			}
		},
		{
			"doubleSided":true,
			"name":"Material.004",
			"pbrMetallicRoughness":{
				"baseColorFactor":[
					0.13563328981399536,
					0.13286826014518738,
					0.03433984890580177,
					1
				],
				"metallicFactor":0,
				"roughnessFactor":0.5
			}
		},
		{
			"doubleSided":true,
			"name":"Material.005",
			"pbrMetallicRoughness":{
				"baseColorFactor":[
					0.13563328981399536,
					0.13286826014518738,
					0.03433984890580177,
					1
				],
				"metallicFactor":0,
				"roughnessFactor":0.5
			}
		},
		{
			"doubleSided":true,
			"name":"Material.006",
			"pbrMetallicRoughness":{
				"baseColorFactor":[
					0.018500197678804398,
					0.022173862904310226,
					0.017641957849264145,
					1
				],
				"metallicFactor":0,
				"roughnessFactor":0.5
			}
		},
		{
			"doubleSided":true,
			"name":"Material.007",
			"pbrMetallicRoughness":{
				"baseColorFactor":[
					0.13563328981399536,
					0.13286826014518738,
					0.03433984890580177,
					1
				],
				"metallicFactor":0,
				"roughnessFactor":0.5
			}
		},
		{
			"doubleSided":true,
			"name":"Material.008",
			"pbrMetallicRoughness":{
				"baseColorFactor":[
					0.018500197678804398,
					0.022173862904310226,
					0.017641957849264145,
					1
				],
				"metallicFactor":0,
				"roughnessFactor":0.5
			}
		},
		{
			"doubleSided":true,
			"name":"Material.009",
			"pbrMetallicRoughness":{
				"baseColorFactor":[
					0.13563328981399536,
					0.13286826014518738,
					0.03433984890580177,
					1
				],
				"metallicFactor":0,
				"roughnessFactor":0.5
			}
		},
		{
			"doubleSided":true,
			"name":"Material.010",
			"pbrMetallicRoughness":{
				"baseColorFactor":[
					1,
					0,
					0.003959561698138714,
					1
				],
				"metallicFactor":0,
				"roughnessFactor":0.5
			}
		},
		{
			"doubleSided":true,
			"name":"Material.011",
			"pbrMetallicRoughness":{
				"baseColorFactor":[
					1,
					1,
					0,
					1
				],
				"metallicFactor":0,
				"roughnessFactor":0.5
			}
		},
		{
			"doubleSided":true,
			"name":"Material.012",
			"pbrMetallicRoughness":{
				"baseColorFactor":[
					0.018500197678804398,
					0.022173862904310226,
					0.017641957849264145,
					1
				],
				"metallicFactor":0,
				"roughnessFactor":0.5
			}
		}
	],
	"meshes":[
		{
			"name":"Cube",
			"primitives":[
				{
					"attributes":{
						"POSITION":0,
						"NORMAL":1,
						"TEXCOORD_0":2,
						"TANGENT":3
					},
					"indices":4,
					"material":0
				}
			]
		},
		{
			"name":"Cylinder",
			"primitives":[
				{
					"attributes":{
						"POSITION":5,
						"NORMAL":6,
						"TEXCOORD_0":7
					},
					"indices":8,
					"material":1
				}
			]
		},
		{
			"name":"Cylinder.001",
			"primitives":[
				{
					"attributes":{
						"POSITION":9,
						"NORMAL":10,
						"TEXCOORD_0":11
					},
					"indices":12,
					"material":2
				}
			]
		},
		{
			"name":"Cylinder.002",
			"primitives":[
				{
					"attributes":{
						"POSITION":13,
						"NORMAL":14,
						"TEXCOORD_0":15
					},
					"indices":12,
					"material":3
				}
			]
		},
		{
			"name":"Cylinder.003",
			"primitives":[
				{
					"attributes":{
						"POSITION":16,
						"NORMAL":17,
						"TEXCOORD_0":18
					},
					"indices":12,
					"material":4
				}
			]
		},
		{
			"name":"Cylinder.004",
			"primitives":[
				{
					"attributes":{
						"POSITION":19,
						"NORMAL":20,
						"TEXCOORD_0":21
					},
					"indices":12,
					"material":5
				}
			]
		},
		{
			"name":"Cylinder.005",
			"primitives":[
				{
					"attributes":{
						"POSITION":22,
						"NORMAL":23,
						"TEXCOORD_0":24
					},
					"indices":12,
					"material":6
				}
			]
		},
		{
			"name":"Cube.001",
			"primitives":[
				{
					"attributes":{
						"POSITION":25,
						"NORMAL":26,
						"TEXCOORD_0":27,
						"TANGENT":28
					},
					"indices":29,
					"material":7
				}
			]
		},
		{
			"name":"Cube.002",
			"primitives":[
				{
					"attributes":{
						"POSITION":30,
						"NORMAL":31,
						"TEXCOORD_0":32
					},
					"indices":33,
					"material":8
				}
			]
		},
		{
			"name":"Cube.003",
			"primitives":[
				{
					"attributes":{
						"POSITION":34,
						"NORMAL":35,
						"TEXCOORD_0":36
					},
					"indices":37,
					"material":9
				}
			]
		},
		{
			"name":"Cylinder.006",
			"primitives":[
				{
					"attributes":{
						"POSITION":38,
						"NORMAL":39,
						"TEXCOORD_0":40
					},
					"indices":41,
					"material":10
				}
			]
		},
		{
			"name":"Circle.001",
			"primitives":[
				{
					"attributes":{
						"POSITION":42,
						"NORMAL":43,
						"TEXCOORD_0":44
					},
					"indices":45,
					"material":11
				}
			]
		},
		{
			"name":"Cylinder.008",
			"primitives":[
				{
					"attributes":{
						"POSITION":46,
						"NORMAL":47,
						"TEXCOORD_0":48,
						"TANGENT":49
					},
					"indices":50,
					"material":12
				}
			]
		}
	],
	"accessors":[
		{
			"bufferView":0,
			"componentType":5126,
			"count":51,
			"max":[
				2.5,
				1,
				6
			],
			"min":[
				-4.3271484375,
				5.960464477539063e-08,
				-6.000003337860107
			],
			"type":"VEC3"
		},
		{
			"bufferView":1,
			"componentType":5126,
			"count":51,
			"type":"VEC3"
		},
		{
			"bufferView":2,
			"componentType":5126,
			"count":51,
			"type":"VEC2"
		},
		{
			"bufferView":3,
			"componentType":5126,
			"count":51,
			"type":"VEC4"
		},
		{
			"bufferView":4,
			"componentType":5123,
			"count":168,
			"type":"SCALAR"
		},
		{
			"bufferView":5,
			"componentType":5126,
			"count":136,
			"max":[
				3.1500000953674316,
				0.49248528480529785,
				5.700000286102295
			],
			"min":[
				-3.1500000953674316,
				-1.4924852848052979,
				-5.5
			],
			"type":"VEC3"
		},
		{
			"bufferView":6,
			"componentType":5126,
			"count":136,
			"type":"VEC3"
		},
		{
			"bufferView":7,
			"componentType":5126,
			"count":136,
			"type":"VEC2"
		},
		{
			"bufferView":8,
			"componentType":5123,
			"count":396,
			"type":"SCALAR"
		},
		{
			"bufferView":9,
			"componentType":5126,
			"count":130,
			"max":[
				1,
				1,
				1
			],
			"min":[
				-1,
				-1,
				-1
			],
			"type":"VEC3"
		},
		{
			"bufferView":10,
			"componentType":5126,
			"count":130,
			"type":"VEC3"
		},
		{
			"bufferView":11,
			"componentType":5126,
			"count":130,
			"type":"VEC2"
		},
		{
			"bufferView":12,
			"componentType":5123,
			"count":372,
			"type":"SCALAR"
		},
		{
			"bufferView":13,
			"componentType":5126,
			"count":130,
			"max":[
				1,
				1,
				1
			],
			"min":[
				-1,
				-1,
				-1
			],
			"type":"VEC3"
		},
		{
			"bufferView":14,
			"componentType":5126,
			"count":130,
			"type":"VEC3"
		},
		{
			"bufferView":15,
			"componentType":5126,
			"count":130,
			"type":"VEC2"
		},
		{
			"bufferView":16,
			"componentType":5126,
			"count":130,
			"max":[
				1,
				1,
				1
			],
			"min":[
				-1,
				-1,
				-1
			],
			"type":"VEC3"
		},
		{
			"bufferView":17,
			"componentType":5126,
			"count":130,
			"type":"VEC3"
		},
		{
			"bufferView":18,
			"componentType":5126,
			"count":130,
			"type":"VEC2"
		},
		{
			"bufferView":19,
			"componentType":5126,
			"count":130,
			"max":[
				1,
				1,
				1
			],
			"min":[
				-1,
				-1,
				-1
			],
			"type":"VEC3"
		},
		{
			"bufferView":20,
			"componentType":5126,
			"count":130,
			"type":"VEC3"
		},
		{
			"bufferView":21,
			"componentType":5126,
			"count":130,
			"type":"VEC2"
		},
		{
			"bufferView":22,
			"componentType":5126,
			"count":130,
			"max":[
				1,
				1,
				1
			],
			"min":[
				-1,
				-1,
				-1
			],
			"type":"VEC3"
		},
		{
			"bufferView":23,
			"componentType":5126,
			"count":130,
			"type":"VEC3"
		},
		{
			"bufferView":24,
			"componentType":5126,
			"count":130,
			"type":"VEC2"
		},
		{
			"bufferView":25,
			"componentType":5126,
			"count":122,
			"max":[
				2.5999999046325684,
				1.100000023841858,
				4.400000095367432
			],
			"min":[
				-4.509420394897461,
				0.699999988079071,
				-3.3000001907348633
			],
			"type":"VEC3"
		},
		{
			"bufferView":26,
			"componentType":5126,
			"count":122,
			"type":"VEC3"
		},
		{
			"bufferView":27,
			"componentType":5126,
			"count":122,
			"type":"VEC2"
		},
		{
			"bufferView":28,
			"componentType":5126,
			"count":122,
			"type":"VEC4"
		},
		{
			"bufferView":29,
			"componentType":5123,
			"count":288,
			"type":"SCALAR"
		},
		{
			"bufferView":30,
			"componentType":5126,
			"count":38,
			"max":[
				1.600000023841858,
				0.19999997317790985,
				1.399999976158142
			],
			"min":[
				-1.600000023841858,
				-1,
				-2.200000047683716
			],
			"type":"VEC3"
		},
		{
			"bufferView":31,
			"componentType":5126,
			"count":38,
			"type":"VEC3"
		},
		{
			"bufferView":32,
			"componentType":5126,
			"count":38,
			"type":"VEC2"
		},
		{
			"bufferView":33,
			"componentType":5123,
			"count":108,
			"type":"SCALAR"
		},
		{
			"bufferView":34,
			"componentType":5126,
			"count":32,
			"max":[
				1.600000023841858,
				0.19999997317790985,
				0.9006261825561523
			],
			"min":[
				-1.600000023841858,
				-1,
				-1.0543618202209473
			],
			"type":"VEC3"
		},
		{
			"bufferView":35,
			"componentType":5126,
			"count":32,
			"type":"VEC3"
		},
		{
			"bufferView":36,
			"componentType":5126,
			"count":32,
			"type":"VEC2"
		},
		{
			"bufferView":37,
			"componentType":5123,
			"count":120,
			"type":"SCALAR"
		},
		{
			"bufferView":38,
			"componentType":5126,
			"count":192,
			"max":[
				1,
				1,
				1
			],
			"min":[
				-1,
				-1,
				-1
			],
			"type":"VEC3"
		},
		{
			"bufferView":39,
			"componentType":5126,
			"count":192,
			"type":"VEC3"
		},
		{
			"bufferView":40,
			"componentType":5126,
			"count":192,
			"type":"VEC2"
		},
		{
			"bufferView":41,
			"componentType":5123,
			"count":372,
			"type":"SCALAR"
		},
		{
			"bufferView":42,
			"componentType":5126,
			"count":20,
			"max":[
				0.9510565400123596,
				0.20000000298023224,
				0.80901700258255
			],
			"min":[
				-0.9510565400123596,
				0,
				-1
			],
			"type":"VEC3"
		},
		{
			"bufferView":43,
			"componentType":5126,
			"count":20,
			"type":"VEC3"
		},
		{
			"bufferView":44,
			"componentType":5126,
			"count":20,
			"type":"VEC2"
		},
		{
			"bufferView":45,
			"componentType":5123,
			"count":108,
			"type":"SCALAR"
		},
		{
			"bufferView":46,
			"componentType":5126,
			"count":14,
			"max":[
				0.8660253882408142,
				1,
				0.5
			],
			"min":[
				-0.8660253882408142,
				-1,
				-1
			],
			"type":"VEC3"
		},
		{
			"bufferView":47,
			"componentType":5126,
			"count":14,
			"type":"VEC3"
		},
		{
			"bufferView":48,
			"componentType":5126,
			"count":14,
			"type":"VEC2"
		},
		{
			"bufferView":49,
			"componentType":5126,
			"count":14,
			"type":"VEC4"
		},
		{
			"bufferView":50,
			"componentType":5123,
			"count":24,
			"type":"SCALAR"
		}
	],
	"bufferViews":[
		{
			"buffer":0,
			"byteLength":612,
			"byteOffset":0,
			"target":34962
		},
		{
			"buffer":0,
			"byteLength":612,
			"byteOffset":612,
			"target":34962
		},
		{
			"buffer":0,
			"byteLength":408,
			"byteOffset":1224,
			"target":34962
		},
		{
			"buffer":0,
			"byteLength":816,
			"byteOffset":1632,
			"target":34962
		},
		{
			"buffer":0,
			"byteLength":336,
			"byteOffset":2448,
			"target":34963
		},
		{
			"buffer":0,
			"byteLength":1632,
			"byteOffset":2784,
			"target":34962
		},
		{
			"buffer":0,
			"byteLength":1632,
			"byteOffset":4416,
			"target":34962
		},
		{
			"buffer":0,
			"byteLength":1088,
			"byteOffset":6048,
			"target":34962
		},
		{
			"buffer":0,
			"byteLength":792,
			"byteOffset":7136,
			"target":34963
		},
		{
			"buffer":0,
			"byteLength":1560,
			"byteOffset":7928,
			"target":34962
		},
		{
			"buffer":0,
			"byteLength":1560,
			"byteOffset":9488,
			"target":34962
		},
		{
			"buffer":0,
			"byteLength":1040,
			"byteOffset":11048,
			"target":34962
		},
		{
			"buffer":0,
			"byteLength":744,
			"byteOffset":12088,
			"target":34963
		},
		{
			"buffer":0,
			"byteLength":1560,
			"byteOffset":12832,
			"target":34962
		},
		{
			"buffer":0,
			"byteLength":1560,
			"byteOffset":14392,
			"target":34962
		},
		{
			"buffer":0,
			"byteLength":1040,
			"byteOffset":15952,
			"target":34962
		},
		{
			"buffer":0,
			"byteLength":1560,
			"byteOffset":16992,
			"target":34962
		},
		{
			"buffer":0,
			"byteLength":1560,
			"byteOffset":18552,
			"target":34962
		},
		{
			"buffer":0,
			"byteLength":1040,
			"byteOffset":20112,
			"target":34962
		},
		{
			"buffer":0,
			"byteLength":1560,
			"byteOffset":21152,
			"target":34962
		},
		{
			"buffer":0,
			"byteLength":1560,
			"byteOffset":22712,
			"target":34962
		},
		{
			"buffer":0,
			"byteLength":1040,
			"byteOffset":24272,
			"target":34962
		},
		{
			"buffer":0,
			"byteLength":1560,
			"byteOffset":25312,
			"target":34962
		},
		{
			"buffer":0,
			"byteLength":1560,
			"byteOffset":26872,
			"target":34962
		},
		{
			"buffer":0,
			"byteLength":1040,
			"byteOffset":28432,
			"target":34962
		},
		{
			"buffer":0,
			"byteLength":1464,
			"byteOffset":29472,
			"target":34962
		},
		{
			"buffer":0,
			"byteLength":1464,
			"byteOffset":30936,
			"target":34962
		},
		{
			"buffer":0,
			"byteLength":976,
			"byteOffset":32400,
			"target":34962
		},
		{
			"buffer":0,
			"byteLength":1952,
			"byteOffset":33376,
			"target":34962
		},
		{
			"buffer":0,
			"byteLength":576,
			"byteOffset":35328,
			"target":34963
		},
		{
			"buffer":0,
			"byteLength":456,
			"byteOffset":35904,
			"target":34962
		},
		{
			"buffer":0,
			"byteLength":456,
			"byteOffset":36360,
			"target":34962
		},
		{
			"buffer":0,
			"byteLength":304,
			"byteOffset":36816,
			"target":34962
		},
		{
			"buffer":0,
			"byteLength":216,
			"byteOffset":37120,
			"target":34963
		},
		{
			"buffer":0,
			"byteLength":384,
			"byteOffset":37336,
			"target":34962
		},
		{
			"buffer":0,
			"byteLength":384,
			"byteOffset":37720,
			"target":34962
		},
		{
			"buffer":0,
			"byteLength":256,
			"byteOffset":38104,
			"target":34962
		},
		{
			"buffer":0,
			"byteLength":240,
			"byteOffset":38360,
			"target":34963
		},
		{
			"buffer":0,
			"byteLength":2304,
			"byteOffset":38600,
			"target":34962
		},
		{
			"buffer":0,
			"byteLength":2304,
			"byteOffset":40904,
			"target":34962
		},
		{
			"buffer":0,
			"byteLength":1536,
			"byteOffset":43208,
			"target":34962
		},
		{
			"buffer":0,
			"byteLength":744,
			"byteOffset":44744,
			"target":34963
		},
		{
			"buffer":0,
			"byteLength":240,
			"byteOffset":45488,
			"target":34962
		},
		{
			"buffer":0,
			"byteLength":240,
			"byteOffset":45728,
			"target":34962
		},
		{
			"buffer":0,
			"byteLength":160,
			"byteOffset":45968,
			"target":34962
		},
		{
			"buffer":0,
			"byteLength":216,
			"byteOffset":46128,
			"target":34963
		},
		{
			"buffer":0,
			"byteLength":168,
			"byteOffset":46344,
			"target":34962
		},
		{
			"buffer":0,
			"byteLength":168,
			"byteOffset":46512,
			"target":34962
		},
		{
			"buffer":0,
			"byteLength":112,
			"byteOffset":46680,
			"target":34962
		},
		{
			"buffer":0,
			"byteLength":224,
			"byteOffset":46792,
			"target":34962
		},
		{
			"buffer":0,
			"byteLength":48,
			"byteOffset":47016,
			"target":34963
		}
	],
	"buffers":[
		{
			"byteLength":47064,
			"uri":"tank-3cc62a5e0949ed36e6ce809332896dfc.bin"
		}
	]
}
